<?xml version="1.0" encoding="utf-8"?>
<!-- Generator: Adobe Illustrator 27.9.0, SVG Export Plug-In . SVG Version: 6.00 Build 0)  -->
<svg version="1.1" id="Layer_1" xmlns="http://www.w3.org/2000/svg" xmlns:xlink="http://www.w3.org/1999/xlink" x="0px" y="0px"
	 viewBox="0 0 554.2 112.7" style="enable-background:new 0 0 554.2 112.7;" xml:space="preserve">
<style type="text/css">
	.st0{fill:#FFFFFF;}
	.st1{fill:#F15B25;}
	.st2{fill:#F15B27;}
	.st3{fill:#FFFFFF;stroke:#000000;stroke-width:0.25;stroke-miterlimit:10;}
	.st4{fill:#211F1F;}
</style>
<g>
	<g>
		<path d="M260.3,74.6V38.2c0-0.4,0.3-0.7,0.7-0.7h6.2c0.2,0,0.4,0.1,0.5,0.3l23,27.4c0.3,0.4,1,0.2,1-0.4V38.2
			c0-0.4,0.3-0.7,0.7-0.7h4.9c0.4,0,0.7,0.3,0.7,0.7v36.4c0,0.4-0.3,0.7-0.7,0.7h-6.2c-0.2,0-0.4-0.1-0.5-0.3l-23.1-27.5
			c-0.3-0.4-1-0.2-1,0.4v26.7c0,0.4-0.3,0.7-0.7,0.7H261C260.6,75.3,260.3,75,260.3,74.6z"/>
		<path d="M306.7,74.6V38.2c0-0.4,0.3-0.7,0.7-0.7h33.3c0.4,0,0.7,0.3,0.7,0.7v4.9c0,0.4-0.3,0.7-0.7,0.7h-26.9
			c-0.4,0-0.7,0.3-0.7,0.7v7.9c0,0.4,0.3,0.7,0.7,0.7h21.4c0.4,0,0.7,0.3,0.7,0.7v5c0,0.4-0.3,0.7-0.7,0.7h-21.4
			c-0.4,0-0.7,0.3-0.7,0.7v7.9c0,0.4,0.3,0.7,0.7,0.7h26.9c0.4,0,0.7,0.3,0.7,0.7v4.9c0,0.4-0.3,0.7-0.7,0.7h-33.3
			C307,75.3,306.7,75,306.7,74.6z"/>
		<path d="M402.5,75.3c-1.3,0-2.5-0.3-3.6-0.9c-1.1-0.6-1.9-1.5-2.6-2.6c-0.6-1.1-0.9-2.3-0.9-3.6V44.6c0-1.3,0.3-2.5,0.9-3.6
			c0.6-1.1,1.5-1.9,2.6-2.6c1.1-0.6,2.3-0.9,3.6-0.9h23.6c1.3,0,2.5,0.3,3.5,0.9c1.1,0.6,1.9,1.5,2.6,2.6c0.6,1.1,1,2.3,1,3.6v1.9
			c0,0.4-0.3,0.7-0.7,0.7h-4.9c-0.4,0-0.7-0.3-0.7-0.7v-1.7c0-0.3-0.1-0.5-0.3-0.7c-0.2-0.2-0.4-0.3-0.7-0.3h-23.2
			c-0.2,0-0.5,0.1-0.7,0.3c-0.2,0.2-0.3,0.4-0.3,0.7V68c0,0.3,0.1,0.5,0.3,0.7c0.2,0.2,0.4,0.3,0.7,0.3h23.2c0.3,0,0.5-0.1,0.7-0.3
			c0.2-0.2,0.3-0.4,0.3-0.7v-6.7c0-0.4-0.3-0.7-0.7-0.7h-7.3c-0.4,0-0.7-0.3-0.7-0.7V55c0-0.4,0.3-0.7,0.7-0.7h13.7
			c0.4,0,0.7,0.3,0.7,0.7v13.3c0,1.3-0.3,2.5-1,3.6c-0.6,1.1-1.5,1.9-2.6,2.6c-1.1,0.6-2.3,0.9-3.5,0.9H402.5z"/>
		<path d="M441.2,74.6V38.2c0-0.4,0.3-0.7,0.7-0.7h4.8c0.4,0,0.7,0.3,0.7,0.7v36.4c0,0.4-0.3,0.7-0.7,0.7h-4.8
			C441.5,75.3,441.2,75,441.2,74.6z"/>
		<path d="M460.7,75.3c-1.3,0-2.5-0.3-3.6-0.9c-1.1-0.6-1.9-1.5-2.6-2.6c-0.6-1.1-0.9-2.3-0.9-3.6V65c0-0.4,0.3-0.7,0.7-0.7h4.9
			c0.4,0,0.7,0.3,0.7,0.7V68c0,0.3,0.1,0.5,0.3,0.7c0.2,0.2,0.4,0.3,0.7,0.3H484c0.3,0,0.5-0.1,0.7-0.3c0.2-0.2,0.3-0.4,0.3-0.7
			V38.2c0-0.4,0.3-0.7,0.7-0.7h4.9c0.4,0,0.7,0.3,0.7,0.7v30c0,1.3-0.3,2.5-1,3.6c-0.6,1.1-1.5,1.9-2.6,2.6
			c-1.1,0.6-2.2,0.9-3.5,0.9H460.7z"/>
		<path d="M500,44.6c0-1.3,0.3-2.5,0.9-3.6c0.6-1.1,1.5-1.9,2.6-2.6c1.1-0.6,2.3-0.9,3.6-0.9h23.6c1.3,0,2.5,0.3,3.5,0.9
			c1.1,0.6,1.9,1.5,2.6,2.6c0.6,1.1,1,2.3,1,3.6v30c0,0.4-0.3,0.7-0.7,0.7h-4.9c-0.4,0-0.7-0.3-0.7-0.7V63.1c0-0.4-0.3-0.7-0.7-0.7
			H507c-0.4,0-0.7,0.3-0.7,0.7v11.6c0,0.4-0.3,0.7-0.7,0.7h-4.9c-0.4,0-0.7-0.3-0.7-0.7V44.6z M530.8,56.1c0.4,0,0.7-0.3,0.7-0.7
			V44.8c0-0.3-0.1-0.5-0.3-0.7c-0.2-0.2-0.4-0.3-0.7-0.3h-23.2c-0.2,0-0.5,0.1-0.7,0.3c-0.2,0.2-0.3,0.4-0.3,0.7v10.5
			c0,0.4,0.3,0.7,0.7,0.7H530.8z"/>
		<path d="M386.3,41.1c-0.6-1.1-1.5-1.9-2.6-2.6c-1.1-0.7-2.3-1-3.5-1h-30c-0.4,0-0.7,0.3-0.7,0.7v36.4c0,0.4,0.3,0.7,0.7,0.7h4.9
			c0.4,0,0.7-0.3,0.7-0.7V62.9c0-0.4,0.3-0.7,0.7-0.7l12.2,0c0.2,0,0.4,0.1,0.5,0.3l10.6,12.7c0.1,0.2,0.3,0.3,0.5,0.3h6.1
			c0.3,0,0.6-0.3,0.6-0.6v-0.5c0-0.2-0.1-0.4-0.2-0.6l-9.3-11c-0.2-0.3-0.1-0.5,0.2-0.5h2.3c1.3,0,2.5-0.3,3.5-1
			c1-0.6,1.9-1.4,2.5-2.5c0.7-1.1,1-2.5,1-3.9V44.7C387.3,43.4,386.9,42.2,386.3,41.1z M380.9,54.8c0,0.3-0.1,0.5-0.3,0.7
			c-0.2,0.2-0.4,0.3-0.7,0.3h-23.2c-0.2,0-0.5-0.1-0.7-0.3c-0.2-0.2-0.3-0.4-0.3-0.7v-10c0-0.2,0.1-0.5,0.3-0.7
			c0.2-0.2,0.4-0.3,0.7-0.3h23.2c0.3,0,0.5,0.1,0.7,0.3c0.2,0.2,0.3,0.4,0.3,0.7V54.8z"/>
		<g>
			<path class="st1" d="M209.7,37.6l-3.7,3.7c-0.1,0.1-0.2,0.3-0.2,0.5v3.1c0,0.4,0.3,0.7,0.7,0.7h39.6c0.2,0,0.4-0.1,0.5-0.2
				l3.7-3.7c0.1-0.1,0.2-0.3,0.2-0.5v-3.1c0-0.4-0.3-0.7-0.7-0.7h-39.6C210,37.4,209.8,37.5,209.7,37.6z"/>
			<path class="st1" d="M246.8,67.4l3.3,3.2c0.3,0.3,0.4,0.6,0.4,1v2.1c0,0.8-0.6,1.4-1.4,1.4h-38.6c-0.4,0-0.7-0.1-1-0.4l-3.3-3.2
				c-0.3-0.3-0.4-0.6-0.4-1v-2.1c0-0.8,0.6-1.4,1.4-1.4h38.6C246.2,67,246.5,67.2,246.8,67.4z"/>
			<path class="st1" d="M239.7,55.5l-3.4-3.4c-0.1-0.1-0.3-0.2-0.5-0.2h-29.3c-0.4,0-0.7,0.3-0.7,0.7v6.7c0,0.4,0.3,0.7,0.7,0.7
				h29.3c0.2,0,0.4-0.1,0.5-0.2l3.4-3.4C239.9,56.2,239.9,55.8,239.7,55.5z"/>
		</g>
	</g>
	<g>
		<path class="st2" d="M55.1,27.1c9.1,0,17.2,4.1,22.6,10.6c5.4-6.5,13.5-10.6,22.6-10.6c16.2,0,29.3,13.1,29.3,29.3
			c0,16.2-13.1,29.3-29.3,29.3c-9.1,0-17.2-4.1-22.6-10.6c-5.4,6.5-13.5,10.6-22.6,10.6c-16.2,0-29.3-13.1-29.3-29.3
			C25.8,40.2,38.9,27.1,55.1,27.1"/>
		<path class="st2" d="M82.4,27.3c-0.1,0.5,0.2,1.1,0.6,1.3c0.3,0.2,0.8,0.1,1.2-0.1c2.5-1.4,5.1-2.5,7.9-3.3c0.4-0.1,0.8-0.4,1-0.7
			c0.2-0.5-0.1-1-0.5-1.3c-2.3-1.7-4.5-3.5-6.8-5.2c-0.4-0.3-1-0.5-1.4-0.3c-0.4,0.2-0.7,0.7-0.8,1.2C83.1,21.7,82.8,24.5,82.4,27.3
			"/>
		<path class="st2" d="M92.4,89.5c0.4-0.3,0.7-0.9,0.5-1.3c-0.1-0.4-0.5-0.6-0.9-0.7c-2.8-0.7-5.4-1.8-7.9-3.3
			C83.8,84,83.3,83.9,83,84c-0.4,0.2-0.6,0.8-0.6,1.3c0.4,2.8,0.7,5.6,1.1,8.4c0.1,0.5,0.3,1,0.8,1.2c0.4,0.2,1,0,1.4-0.3
			C87.9,93,90.2,91.3,92.4,89.5"/>
		<path class="st2" d="M118.1,85.4c0.1-0.5-0.2-1.1-0.6-1.3c-0.3-0.2-0.8-0.1-1.2,0.1c-2.5,1.4-5.1,2.5-7.9,3.3
			c-0.4,0.1-0.8,0.4-1,0.7c-0.2,0.4,0.1,1,0.5,1.3c2.3,1.7,4.5,3.5,6.8,5.2c0.4,0.3,1,0.5,1.4,0.3c0.4-0.2,0.7-0.7,0.8-1.2
			C117.3,91,117.7,88.2,118.1,85.4"/>
		<path class="st2" d="M133.4,64.2c-0.3-0.4-0.9-0.7-1.4-0.5c-0.4,0.1-0.6,0.5-0.7,0.9c-0.7,2.8-1.8,5.4-3.3,7.9
			c-0.2,0.4-0.3,0.9-0.2,1.2c0.2,0.4,0.8,0.6,1.3,0.6c2.8-0.4,5.6-0.7,8.4-1.1c0.5-0.1,1-0.3,1.2-0.8c0.2-0.4,0-1-0.3-1.4
			C136.9,68.7,135.2,66.4,133.4,64.2"/>
		<path class="st2" d="M129.3,38.5c-0.5-0.1-1.1,0.2-1.3,0.6c-0.2,0.3-0.1,0.8,0.1,1.2c1.4,2.5,2.5,5.1,3.3,7.9
			c0.1,0.4,0.4,0.8,0.7,1c0.4,0.2,1-0.1,1.3-0.5c1.7-2.3,3.5-4.5,5.2-6.8c0.3-0.4,0.5-1,0.3-1.4c-0.2-0.4-0.7-0.7-1.2-0.8
			C134.9,39.3,132.1,38.9,129.3,38.5"/>
		<path class="st2" d="M108.1,23.2c-0.4,0.3-0.7,0.9-0.5,1.4c0.1,0.4,0.5,0.6,0.9,0.7c2.8,0.7,5.4,1.8,7.9,3.3
			c0.4,0.2,0.9,0.3,1.2,0.2c0.4-0.2,0.6-0.8,0.6-1.3c-0.4-2.8-0.7-5.6-1.1-8.4c-0.1-0.5-0.3-1-0.8-1.2c-0.4-0.2-1,0-1.4,0.3
			C112.6,19.7,110.4,21.5,108.1,23.2"/>
		<path class="st2" d="M73,27.3c0.1,0.5-0.2,1.1-0.6,1.3c-0.3,0.2-0.8,0.1-1.2-0.1c-2.5-1.4-5.1-2.5-7.9-3.3c-0.4-0.1-0.8-0.4-1-0.7
			c-0.2-0.4,0.1-1,0.5-1.3c2.3-1.7,4.5-3.5,6.8-5.2c0.4-0.3,1-0.5,1.4-0.3c0.4,0.2,0.7,0.7,0.8,1.2C72.2,21.7,72.6,24.5,73,27.3"/>
		<path class="st2" d="M62.9,89.5c-0.4-0.3-0.7-0.9-0.5-1.3c0.1-0.4,0.5-0.6,0.9-0.7c2.8-0.7,5.4-1.8,7.9-3.3
			c0.4-0.2,0.9-0.3,1.2-0.2c0.4,0.2,0.6,0.8,0.6,1.3c-0.4,2.8-0.7,5.6-1.1,8.4c-0.1,0.5-0.3,1-0.8,1.2c-0.4,0.2-1,0-1.4-0.3
			C67.4,93,65.2,91.3,62.9,89.5"/>
		<path class="st2" d="M37.3,85.4c-0.1-0.5,0.2-1.1,0.6-1.3c0.3-0.2,0.8-0.1,1.2,0.1c2.5,1.4,5.1,2.5,7.9,3.3c0.4,0.1,0.8,0.4,1,0.7
			c0.2,0.4-0.1,1-0.5,1.3c-2.3,1.7-4.5,3.5-6.8,5.2c-0.4,0.3-1,0.5-1.4,0.3c-0.4-0.2-0.7-0.7-0.8-1.2C38,91,37.6,88.2,37.3,85.4"/>
		<path class="st2" d="M21.9,64.2c0.3-0.4,0.9-0.7,1.4-0.5c0.4,0.1,0.6,0.5,0.7,0.9c0.7,2.8,1.8,5.4,3.3,7.9
			c0.2,0.4,0.3,0.9,0.2,1.2c-0.2,0.4-0.8,0.6-1.3,0.6c-2.8-0.4-5.6-0.7-8.4-1.1c-0.5-0.1-1-0.3-1.2-0.8c-0.2-0.4,0-1,0.3-1.4
			C18.5,68.7,20.2,66.4,21.9,64.2"/>
		<path class="st2" d="M26.1,38.5c0.5-0.1,1.1,0.2,1.3,0.6c0.2,0.3,0.1,0.8-0.1,1.2c-1.4,2.5-2.5,5.1-3.3,7.9
			c-0.1,0.4-0.4,0.8-0.7,1c-0.4,0.2-1-0.1-1.3-0.5c-1.7-2.3-3.5-4.5-5.2-6.8c-0.3-0.4-0.5-1-0.3-1.4c0.2-0.4,0.7-0.7,1.2-0.8
			C20.5,39.2,23.3,38.9,26.1,38.5"/>
		<path class="st2" d="M47.2,23.2c0.4,0.3,0.7,0.9,0.5,1.4c-0.1,0.4-0.5,0.6-0.9,0.7C44,26,41.4,27.1,39,28.5
			c-0.4,0.2-0.9,0.3-1.2,0.2c-0.4-0.2-0.6-0.8-0.6-1.3c0.4-2.8,0.7-5.6,1.1-8.4c0.1-0.5,0.3-1,0.8-1.2c0.4-0.2,1,0,1.4,0.3
			C42.7,19.7,45,21.5,47.2,23.2"/>
		<path class="st0" d="M43.2,48.3c0.2,0,0.3,0,0.5,0c0.6,0,1.4,0,2.4,0c0.9,0,1.7,0,2.3,0c0.9,0,1.5,0,1.9,0.1
			c0.4,0.1,0.8,0.2,1.1,0.3c0.3,0.1,0.6,0.3,0.8,0.5c0.2,0.2,0.4,0.5,0.5,0.7c0.1,0.3,0.2,0.6,0.3,0.9c0.1,0.3,0.1,0.7,0,1
			c0,0.4-0.1,0.8-0.3,1.2c-0.1,0.4-0.3,0.7-0.5,1c-0.2,0.3-0.5,0.6-0.7,0.8c-0.3,0.2-0.5,0.4-0.8,0.5c-0.2,0.1-0.6,0.2-1,0.4
			c0.3,0.1,0.6,0.2,0.8,0.2c0.2,0.1,0.4,0.2,0.7,0.3c0.2,0.2,0.4,0.3,0.6,0.6c0.2,0.2,0.4,0.5,0.5,0.7c0.1,0.3,0.2,0.5,0.2,0.9
			c0,0.3,0.1,0.7,0,1c-0.1,0.7-0.3,1.4-0.6,2c-0.4,0.6-0.8,1.1-1.4,1.4c-0.6,0.4-1.2,0.6-1.9,0.7c-0.7,0.1-2.2,0.2-4.4,0.2l-2.8,0
			l-2.1,0c0.3-1.6,0.5-2.9,0.6-4c0.1-1,0.3-2.8,0.6-5.3c0.3-2.5,0.5-4.2,0.5-5.1v0c0-0.4,0.1-0.8,0.4-1
			C41.9,48.2,42.6,48.3,43.2,48.3"/>
		<path class="st2" d="M43,61.6l2.6,0c0.5,0,0.9,0,1.2-0.1c0.3,0,0.6-0.1,0.9-0.2c0.3-0.1,0.5-0.2,0.7-0.3c0.2-0.1,0.3-0.3,0.4-0.5
			c0.1-0.2,0.2-0.4,0.3-0.6c0.1-0.2,0.1-0.5,0.2-0.7c0-0.4,0-0.7-0.1-0.9c-0.1-0.3-0.3-0.5-0.5-0.7c-0.2-0.2-0.5-0.3-0.8-0.4
			C47.6,57,47.1,57,46.5,57l-2.9,0L43,61.6z"/>
		<path class="st2" d="M43.9,54.7l1.8,0c0.8,0,1.3,0,1.6-0.1c0.3,0,0.6-0.1,0.9-0.2c0.3-0.1,0.6-0.3,0.8-0.5
			c0.2-0.2,0.4-0.5,0.5-0.8c0.1-0.3,0.2-0.6,0.2-0.9c0-0.3,0-0.5-0.1-0.8c-0.1-0.2-0.2-0.5-0.4-0.6c-0.2-0.2-0.4-0.3-0.7-0.4
			c-0.3-0.1-0.7-0.1-1.3-0.1l-2.7,0L43.9,54.7z"/>
		<path class="st0" d="M57.4,63.9c0.4-2.6,0.8-5.3,1.1-8.1c0.3-2.8,0.6-4.9,0.7-6.3c0-0.4,0.1-0.8,0.4-1c0.3-0.2,0.9-0.2,1.6-0.2
			c0.1,0,0.7,0,1.8,0c-0.6,4-1.3,9.2-1.9,15.6l-1.7,0C59.1,63.9,58.5,63.9,57.4,63.9"/>
		<path class="st0" d="M67.4,63.6c0-1.2,0-2.1,0-2.8c1.4,0.7,2.8,1,4,1c0.5,0,1-0.1,1.4-0.2c0.4-0.1,0.8-0.4,1-0.6
			c0.2-0.3,0.4-0.6,0.4-0.9c0-0.3,0-0.5-0.1-0.7c-0.1-0.3-0.3-0.6-0.7-0.9c-0.4-0.4-1.1-1.1-2.2-2.1c-0.5-0.5-0.8-0.8-1-1
			c-0.4-0.4-0.7-0.8-1-1.2c-0.2-0.3-0.4-0.7-0.4-1c-0.1-0.3-0.1-0.7-0.1-1.1c0.1-0.7,0.3-1.4,0.8-2c0.4-0.6,1.1-1.1,1.9-1.5
			c0.8-0.4,1.8-0.5,3.1-0.5c1.1,0,2.3,0.1,3.7,0.4c0,0.8,0,1.7,0,2.7c-1.2-0.5-2.2-0.7-3.2-0.7c-0.7,0-1.4,0.2-1.9,0.5
			c-0.5,0.3-0.8,0.7-0.8,1.2c0,0.1,0,0.2,0,0.4c0,0.1,0.1,0.3,0.1,0.4c0.1,0.1,0.2,0.3,0.3,0.5c0.2,0.2,0.4,0.4,0.7,0.7
			c0.3,0.3,0.6,0.5,0.8,0.7l1.3,1.3c0.3,0.3,0.6,0.6,0.9,0.9c0.3,0.3,0.5,0.6,0.7,0.8c0.2,0.3,0.3,0.5,0.4,0.7
			c0.1,0.2,0.2,0.5,0.2,0.7c0,0.3,0,0.5,0,0.8c-0.1,0.6-0.3,1.2-0.6,1.8c-0.3,0.6-0.8,1-1.4,1.4c-0.6,0.4-1.2,0.6-1.9,0.8
			c-0.7,0.1-1.4,0.2-2.1,0.2c-0.5,0-1,0-1.7-0.1C69.2,64,68.4,63.8,67.4,63.6"/>
		<path class="st0" d="M92.4,48.1c1.1,0,2.2,0.2,3.2,0.5c1,0.3,1.9,0.8,2.7,1.5c0.7,0.7,1.3,1.5,1.6,2.5c0.3,0.9,0.5,2,0.4,3.3
			c-0.1,1.2-0.4,2.3-0.9,3.4c-0.5,1.1-1.2,2-2,2.8c-0.9,0.8-1.9,1.3-3.1,1.7c-1.2,0.4-2.4,0.6-3.7,0.5c-1.2,0-2.4-0.2-3.5-0.5
			c-1.1-0.4-2-0.9-2.8-1.6c-0.8-0.7-1.3-1.6-1.5-2.5c-0.3-1-0.4-2-0.3-3.1c0.1-1.2,0.4-2.4,0.9-3.5c0.5-1.1,1.2-2,2.2-2.7
			c0.9-0.7,1.9-1.3,3.1-1.6C89.9,48.3,91.1,48.1,92.4,48.1"/>
		<path class="st2" d="M92,50.6c-1.2,0-2.2,0.3-3.1,0.8c-0.9,0.5-1.6,1.2-2.1,2.2c-0.5,0.9-0.8,1.9-0.9,3c-0.1,1,0.1,1.9,0.4,2.7
			c0.3,0.8,0.9,1.5,1.8,1.9c0.8,0.4,1.7,0.7,2.7,0.7c0.8,0,1.5-0.1,2.2-0.4c0.7-0.3,1.3-0.6,1.9-1.2c0.5-0.5,1-1.2,1.3-1.9
			c0.3-0.7,0.5-1.5,0.6-2.3c0.1-0.8,0-1.5-0.2-2.2c-0.2-0.7-0.5-1.3-0.9-1.8c-0.4-0.5-1-0.9-1.6-1.1C93.4,50.7,92.8,50.6,92,50.6"/>
		<path class="st0" d="M106.6,49.7c-0.2,2.1-0.5,4.4-0.8,6.7c-0.4,2.8-0.8,5.4-1.2,7.7l2.2,0l3.6,0c1.4,0,3.1,0,5.1,0
			c0.1-0.9,0.3-1.7,0.4-2.5c-0.6,0-1.1,0-1.7,0.1c-0.6,0-1.8,0-3.6,0l-2,0c0.1-1.3,0.3-2.6,0.5-3.9l0.6-4.6c0.2-1.8,0.4-3.3,0.7-4.7
			c-0.8,0-1.3,0-1.7,0h-0.1c-0.6,0-1.3,0-1.6,0.2C106.8,48.9,106.6,49.3,106.6,49.7"/>
	</g>
	<rect x="171.7" y="16.4" width="1.5" height="80"/>
</g>
</svg>
